<mxfile host="app.diagrams.net" modified="2021-11-26T09:19:25.894Z" agent="5.0 (X11; Linux x86_64) AppleWebKit/537.36 (KHTML, like Gecko) Chrome/96.0.4664.45 Safari/537.36" etag="aUahIN0bAv9lTUV3g4Yn" version="15.8.6" type="github">
  <diagram id="C5RBs43oDa-KdzZeNtuy" name="Page-1">
    <mxGraphModel dx="912" dy="491" grid="1" gridSize="10" guides="1" tooltips="1" connect="1" arrows="1" fold="1" page="1" pageScale="1" pageWidth="827" pageHeight="1169" math="0" shadow="0">
      <root>
        <mxCell id="WIyWlLk6GJQsqaUBKTNV-0" />
        <mxCell id="WIyWlLk6GJQsqaUBKTNV-1" parent="WIyWlLk6GJQsqaUBKTNV-0" />
        <mxCell id="SqPZgyFbhEMVWTQlym7i-2" style="edgeStyle=orthogonalEdgeStyle;rounded=0;orthogonalLoop=1;jettySize=auto;html=1;exitX=0.5;exitY=1;exitDx=0;exitDy=0;" edge="1" parent="WIyWlLk6GJQsqaUBKTNV-1" source="WIyWlLk6GJQsqaUBKTNV-3">
          <mxGeometry relative="1" as="geometry">
            <mxPoint x="220" y="160" as="targetPoint" />
          </mxGeometry>
        </mxCell>
        <mxCell id="WIyWlLk6GJQsqaUBKTNV-3" value="&lt;div style=&quot;font-family: &amp;#34;droid sans mono&amp;#34; , &amp;#34;monospace&amp;#34; , monospace , &amp;#34;droid sans fallback&amp;#34; ; font-size: 14px ; line-height: 19px&quot;&gt;&lt;font style=&quot;vertical-align: inherit&quot;&gt;&lt;font style=&quot;vertical-align: inherit&quot;&gt;&lt;font style=&quot;vertical-align: inherit&quot;&gt;&lt;font style=&quot;vertical-align: inherit ; background-color: rgb(255 , 255 , 255)&quot;&gt;GrabImageStereo&lt;/font&gt;&lt;/font&gt;&lt;/font&gt;&lt;/font&gt;&lt;/div&gt;" style="rounded=1;whiteSpace=wrap;html=1;fontSize=12;glass=0;strokeWidth=1;shadow=0;" parent="WIyWlLk6GJQsqaUBKTNV-1" vertex="1">
          <mxGeometry x="160" y="80" width="120" height="40" as="geometry" />
        </mxCell>
        <mxCell id="SqPZgyFbhEMVWTQlym7i-6" value="" style="edgeStyle=orthogonalEdgeStyle;rounded=0;orthogonalLoop=1;jettySize=auto;html=1;fontColor=#000000;" edge="1" parent="WIyWlLk6GJQsqaUBKTNV-1" source="SqPZgyFbhEMVWTQlym7i-0" target="SqPZgyFbhEMVWTQlym7i-5">
          <mxGeometry relative="1" as="geometry" />
        </mxCell>
        <mxCell id="SqPZgyFbhEMVWTQlym7i-0" value="&lt;font style=&quot;vertical-align: inherit&quot;&gt;&lt;font style=&quot;vertical-align: inherit&quot;&gt;检查是否需要切换模式&lt;/font&gt;&lt;/font&gt;" style="rounded=1;whiteSpace=wrap;html=1;fontSize=12;glass=0;strokeWidth=1;shadow=0;" vertex="1" parent="WIyWlLk6GJQsqaUBKTNV-1">
          <mxGeometry x="160" y="160" width="120" height="40" as="geometry" />
        </mxCell>
        <mxCell id="SqPZgyFbhEMVWTQlym7i-3" value="&lt;div style=&quot;text-align: justify&quot;&gt;&lt;span&gt;&lt;font style=&quot;vertical-align: inherit&quot;&gt;&lt;font style=&quot;vertical-align: inherit&quot;&gt;&lt;font style=&quot;vertical-align: inherit&quot;&gt;&lt;font style=&quot;vertical-align: inherit&quot;&gt;主线程通过调用该函数，初始化当前帧的信息并&lt;/font&gt;&lt;/font&gt;&lt;/font&gt;&lt;/font&gt;&lt;/span&gt;&lt;/div&gt;&lt;font style=&quot;vertical-align: inherit&quot;&gt;&lt;div style=&quot;text-align: justify&quot;&gt;&lt;span&gt;&lt;font style=&quot;vertical-align: inherit&quot;&gt;&lt;font style=&quot;vertical-align: inherit&quot;&gt;&lt;font style=&quot;vertical-align: inherit&quot;&gt;&lt;font style=&quot;vertical-align: inherit&quot;&gt;进入跟踪模式。返回的是当前帧的位姿&lt;/font&gt;&lt;/font&gt;&lt;/font&gt;&lt;/font&gt;&lt;/span&gt;&lt;/div&gt;&lt;font style=&quot;vertical-align: inherit&quot;&gt;&lt;div style=&quot;text-align: justify&quot;&gt;&lt;br&gt;&lt;/div&gt;&lt;/font&gt;&lt;/font&gt;" style="text;html=1;align=center;verticalAlign=middle;resizable=0;points=[];autosize=1;strokeColor=none;fillColor=none;" vertex="1" parent="WIyWlLk6GJQsqaUBKTNV-1">
          <mxGeometry x="315" y="80" width="270" height="50" as="geometry" />
        </mxCell>
        <mxCell id="SqPZgyFbhEMVWTQlym7i-4" value="&lt;div style=&quot;text-align: justify&quot;&gt;&lt;span style=&quot;background-color: rgb(255 , 255 , 255)&quot;&gt;主要包括只定位模式和定位加建图模式&lt;/span&gt;&lt;/div&gt;&lt;div style=&quot;text-align: justify&quot;&gt;&lt;span style=&quot;background-color: rgb(255 , 255 , 255)&quot;&gt;&lt;font style=&quot;vertical-align: inherit&quot;&gt;&lt;font style=&quot;vertical-align: inherit&quot;&gt;&lt;font style=&quot;vertical-align: inherit&quot;&gt;&lt;font style=&quot;vertical-align: inherit&quot;&gt;&lt;font style=&quot;vertical-align: inherit&quot;&gt;&lt;font style=&quot;vertical-align: inherit&quot;&gt;&lt;font style=&quot;vertical-align: inherit&quot;&gt;&lt;font style=&quot;vertical-align: inherit&quot;&gt;&lt;font style=&quot;vertical-align: inherit&quot;&gt;&lt;font style=&quot;vertical-align: inherit&quot;&gt;变量：&lt;/font&gt;&lt;/font&gt;&lt;/font&gt;&lt;/font&gt;&lt;/font&gt;&lt;/font&gt;&lt;/font&gt;&lt;/font&gt;&lt;/font&gt;&lt;/font&gt;&lt;span style=&quot;font-family: &amp;#34;droid sans mono&amp;#34; , &amp;#34;monospace&amp;#34; , monospace , &amp;#34;droid sans fallback&amp;#34; ; font-size: 14px&quot;&gt;&lt;font style=&quot;vertical-align: inherit&quot;&gt;&lt;font style=&quot;vertical-align: inherit&quot;&gt;&lt;font style=&quot;vertical-align: inherit&quot;&gt;&lt;font style=&quot;vertical-align: inherit&quot;&gt; mbActivateLocalizationMode 控制切换到只定位模式&lt;/font&gt;&lt;/font&gt;&lt;/font&gt;&lt;/font&gt;&lt;/span&gt;&lt;/span&gt;&lt;/div&gt;&lt;div style=&quot;text-align: justify ; font-family: &amp;#34;droid sans mono&amp;#34; , &amp;#34;monospace&amp;#34; , monospace , &amp;#34;droid sans fallback&amp;#34; ; font-size: 14px ; line-height: 19px&quot;&gt;&lt;span style=&quot;background-color: rgb(255 , 255 , 255)&quot;&gt;mbDeactivateLocalizationMode 控制切换到定位和建图模式&lt;/span&gt;&lt;/div&gt;" style="text;html=1;align=right;verticalAlign=middle;resizable=0;points=[];autosize=1;strokeColor=none;fillColor=none;" vertex="1" parent="WIyWlLk6GJQsqaUBKTNV-1">
          <mxGeometry x="310" y="145" width="430" height="50" as="geometry" />
        </mxCell>
        <mxCell id="SqPZgyFbhEMVWTQlym7i-9" value="" style="edgeStyle=orthogonalEdgeStyle;rounded=0;orthogonalLoop=1;jettySize=auto;html=1;fontColor=#000000;" edge="1" parent="WIyWlLk6GJQsqaUBKTNV-1" source="SqPZgyFbhEMVWTQlym7i-5" target="SqPZgyFbhEMVWTQlym7i-8">
          <mxGeometry relative="1" as="geometry" />
        </mxCell>
        <mxCell id="SqPZgyFbhEMVWTQlym7i-5" value="检查tracking中状态是否需要reset" style="whiteSpace=wrap;html=1;rounded=1;shadow=0;strokeWidth=1;glass=0;" vertex="1" parent="WIyWlLk6GJQsqaUBKTNV-1">
          <mxGeometry x="160" y="240" width="120" height="60" as="geometry" />
        </mxCell>
        <mxCell id="SqPZgyFbhEMVWTQlym7i-7" value="&lt;div style=&quot;text-align: justify&quot;&gt;&lt;span style=&quot;background-color: rgb(255 , 255 , 255)&quot;&gt;主要包含：跟踪是否需要重新开始和active_map是否需要重新设置&lt;/span&gt;&lt;/div&gt;&lt;span style=&quot;background-color: rgb(255 , 255 , 255)&quot;&gt;&lt;div style=&quot;text-align: justify&quot;&gt;相关变量：&lt;/div&gt;&lt;span style=&quot;font-family: &amp;#34;droid sans mono&amp;#34; , &amp;#34;monospace&amp;#34; , monospace , &amp;#34;droid sans fallback&amp;#34; ; font-size: 14px&quot;&gt;&lt;div style=&quot;text-align: justify&quot;&gt;mbReset&lt;/div&gt;&lt;/span&gt;&lt;/span&gt;&lt;div style=&quot;text-align: justify ; font-family: &amp;#34;droid sans mono&amp;#34; , &amp;#34;monospace&amp;#34; , monospace , &amp;#34;droid sans fallback&amp;#34; ; font-size: 14px ; line-height: 19px&quot;&gt;&lt;span style=&quot;background-color: rgb(255 , 255 , 255)&quot;&gt;mbResetActiveMap&lt;/span&gt;&lt;/div&gt;" style="text;html=1;align=center;verticalAlign=middle;resizable=0;points=[];autosize=1;strokeColor=none;fillColor=none;fontColor=#000000;" vertex="1" parent="WIyWlLk6GJQsqaUBKTNV-1">
          <mxGeometry x="315" y="220" width="360" height="70" as="geometry" />
        </mxCell>
        <mxCell id="SqPZgyFbhEMVWTQlym7i-12" value="" style="edgeStyle=orthogonalEdgeStyle;rounded=0;orthogonalLoop=1;jettySize=auto;html=1;fontColor=#000000;" edge="1" parent="WIyWlLk6GJQsqaUBKTNV-1" source="SqPZgyFbhEMVWTQlym7i-8" target="SqPZgyFbhEMVWTQlym7i-11">
          <mxGeometry relative="1" as="geometry" />
        </mxCell>
        <mxCell id="SqPZgyFbhEMVWTQlym7i-8" value="向tracker类中输入需要应用的imu的数据" style="whiteSpace=wrap;html=1;rounded=1;shadow=0;strokeWidth=1;glass=0;" vertex="1" parent="WIyWlLk6GJQsqaUBKTNV-1">
          <mxGeometry x="160" y="350" width="120" height="60" as="geometry" />
        </mxCell>
        <mxCell id="SqPZgyFbhEMVWTQlym7i-10" value="&lt;div style=&quot;font-family: &amp;#34;droid sans mono&amp;#34; , &amp;#34;monospace&amp;#34; , monospace , &amp;#34;droid sans fallback&amp;#34; ; font-size: 14px ; line-height: 19px&quot;&gt;&lt;span style=&quot;background-color: rgb(255 , 255 , 255)&quot;&gt;mpTracker-&amp;gt;GrabImuData(vImuMeas[i_imu])&lt;/span&gt;&lt;/div&gt;&lt;div style=&quot;text-align: justify ; font-family: &amp;#34;droid sans mono&amp;#34; , &amp;#34;monospace&amp;#34; , monospace , &amp;#34;droid sans fallback&amp;#34; ; font-size: 14px ; line-height: 19px&quot;&gt;&lt;span style=&quot;background-color: rgb(255 , 255 , 255)&quot;&gt;保存在&amp;nbsp;&lt;/span&gt;&lt;span style=&quot;font-family: &amp;#34;droid sans mono&amp;#34; , monospace , monospace , &amp;#34;droid sans fallback&amp;#34;&quot;&gt;mlQueueImuData 变量中&lt;/span&gt;&lt;/div&gt;" style="text;html=1;align=center;verticalAlign=middle;resizable=0;points=[];autosize=1;strokeColor=none;fillColor=none;fontColor=#000000;" vertex="1" parent="WIyWlLk6GJQsqaUBKTNV-1">
          <mxGeometry x="315" y="340" width="340" height="40" as="geometry" />
        </mxCell>
        <mxCell id="SqPZgyFbhEMVWTQlym7i-15" value="" style="edgeStyle=orthogonalEdgeStyle;rounded=0;orthogonalLoop=1;jettySize=auto;html=1;fontColor=#000000;" edge="1" parent="WIyWlLk6GJQsqaUBKTNV-1" source="SqPZgyFbhEMVWTQlym7i-11" target="SqPZgyFbhEMVWTQlym7i-14">
          <mxGeometry relative="1" as="geometry" />
        </mxCell>
        <mxCell id="SqPZgyFbhEMVWTQlym7i-11" value="向tracker类中输入图像信息，开始跟踪机器人" style="whiteSpace=wrap;html=1;rounded=1;shadow=0;strokeWidth=1;glass=0;" vertex="1" parent="WIyWlLk6GJQsqaUBKTNV-1">
          <mxGeometry x="160" y="470" width="120" height="60" as="geometry" />
        </mxCell>
        <mxCell id="SqPZgyFbhEMVWTQlym7i-13" value="&lt;div style=&quot;text-align: justify ; font-family: &amp;#34;droid sans mono&amp;#34; , &amp;#34;monospace&amp;#34; , monospace , &amp;#34;droid sans fallback&amp;#34; ; font-size: 14px ; line-height: 19px&quot;&gt;&lt;span style=&quot;background-color: rgb(255 , 255 , 255)&quot;&gt;cv::Mat Tcw = mpTracker-&amp;gt;&lt;/span&gt;&lt;/div&gt;&lt;div style=&quot;text-align: justify ; font-family: &amp;#34;droid sans mono&amp;#34; , &amp;#34;monospace&amp;#34; , monospace , &amp;#34;droid sans fallback&amp;#34; ; font-size: 14px ; line-height: 19px&quot;&gt;&lt;span style=&quot;background-color: rgb(255 , 255 , 255)&quot;&gt;GrabImageStereo(imLeft,imRight,timestamp,filename);&lt;/span&gt;&lt;/div&gt;&lt;div style=&quot;text-align: justify ; font-family: &amp;#34;droid sans mono&amp;#34; , &amp;#34;monospace&amp;#34; , monospace , &amp;#34;droid sans fallback&amp;#34; ; font-size: 14px ; line-height: 19px&quot;&gt;&lt;span style=&quot;background-color: rgb(255 , 255 , 255)&quot;&gt;输入左右图像信息，时间戳信息&lt;/span&gt;&lt;/div&gt;&lt;div style=&quot;text-align: justify ; font-family: &amp;#34;droid sans mono&amp;#34; , &amp;#34;monospace&amp;#34; , monospace , &amp;#34;droid sans fallback&amp;#34; ; font-size: 14px ; line-height: 19px&quot;&gt;&lt;span style=&quot;background-color: rgb(255 , 255 , 255)&quot;&gt;返回的是跟踪的当前帧的位姿&lt;/span&gt;&lt;/div&gt;" style="text;html=1;align=center;verticalAlign=middle;resizable=0;points=[];autosize=1;strokeColor=none;fillColor=none;fontColor=#000000;" vertex="1" parent="WIyWlLk6GJQsqaUBKTNV-1">
          <mxGeometry x="340" y="450" width="450" height="80" as="geometry" />
        </mxCell>
        <mxCell id="SqPZgyFbhEMVWTQlym7i-14" value="更新当前跟踪的状态&lt;br&gt;当前跟踪到的三维点&lt;br&gt;当前帧的左眼的特征点" style="whiteSpace=wrap;html=1;rounded=1;shadow=0;strokeWidth=1;glass=0;" vertex="1" parent="WIyWlLk6GJQsqaUBKTNV-1">
          <mxGeometry x="160" y="585" width="120" height="60" as="geometry" />
        </mxCell>
        <mxCell id="SqPZgyFbhEMVWTQlym7i-16" value="&lt;div style=&quot;font-family: &amp;#34;droid sans mono&amp;#34; , &amp;#34;monospace&amp;#34; , monospace , &amp;#34;droid sans fallback&amp;#34; ; font-size: 14px ; line-height: 19px&quot;&gt;&lt;div style=&quot;text-align: justify&quot;&gt;    &lt;span style=&quot;background-color: rgb(255 , 255 , 255)&quot;&gt;mTrackingState = mpTracker-&amp;gt;mState;&lt;/span&gt;&lt;/div&gt;&lt;div style=&quot;text-align: justify&quot;&gt;    &lt;span style=&quot;background-color: rgb(255 , 255 , 255)&quot;&gt;mTrackedMapPoints = mpTracker-&amp;gt;mCurrentFrame.mvpMapPoints;&lt;/span&gt;&lt;/div&gt;&lt;div style=&quot;text-align: justify&quot;&gt;    &lt;span style=&quot;background-color: rgb(255 , 255 , 255)&quot;&gt;mTrackedKeyPointsUn = mpTracker-&amp;gt;mCurrentFrame.mvKeysUn;&lt;/span&gt;&lt;/div&gt;&lt;div style=&quot;text-align: justify&quot;&gt;&lt;span style=&quot;background-color: rgb(255 , 255 , 255)&quot;&gt;&lt;br&gt;&lt;/span&gt;&lt;/div&gt;&lt;/div&gt;" style="text;html=1;align=center;verticalAlign=middle;resizable=0;points=[];autosize=1;strokeColor=none;fillColor=none;fontColor=#000000;" vertex="1" parent="WIyWlLk6GJQsqaUBKTNV-1">
          <mxGeometry x="327" y="560" width="500" height="80" as="geometry" />
        </mxCell>
        <mxCell id="SqPZgyFbhEMVWTQlym7i-17" value="system中主线程&lt;br&gt;可以认为是主线程" style="rounded=0;whiteSpace=wrap;html=1;labelBackgroundColor=#FFFFFF;fontColor=#000000;" vertex="1" parent="WIyWlLk6GJQsqaUBKTNV-1">
          <mxGeometry x="10" y="50" width="120" height="60" as="geometry" />
        </mxCell>
        <mxCell id="SqPZgyFbhEMVWTQlym7i-18" value="tracking线程" style="rounded=0;whiteSpace=wrap;html=1;labelBackgroundColor=#FFFFFF;fontColor=#000000;" vertex="1" parent="WIyWlLk6GJQsqaUBKTNV-1">
          <mxGeometry x="20" y="1210" width="120" height="60" as="geometry" />
        </mxCell>
        <mxCell id="SqPZgyFbhEMVWTQlym7i-22" value="" style="edgeStyle=orthogonalEdgeStyle;rounded=0;orthogonalLoop=1;jettySize=auto;html=1;fontColor=#000000;" edge="1" parent="WIyWlLk6GJQsqaUBKTNV-1" source="SqPZgyFbhEMVWTQlym7i-19" target="SqPZgyFbhEMVWTQlym7i-21">
          <mxGeometry relative="1" as="geometry" />
        </mxCell>
        <mxCell id="SqPZgyFbhEMVWTQlym7i-19" value="&lt;div style=&quot;font-family: &amp;#34;droid sans mono&amp;#34; , &amp;#34;monospace&amp;#34; , monospace , &amp;#34;droid sans fallback&amp;#34; ; font-size: 14px ; line-height: 19px&quot;&gt;&lt;span style=&quot;background-color: rgb(255 , 255 , 255)&quot;&gt;GrabImageStereo&lt;/span&gt;&lt;/div&gt;" style="rounded=1;whiteSpace=wrap;html=1;labelBackgroundColor=#FFFFFF;fontColor=#000000;" vertex="1" parent="WIyWlLk6GJQsqaUBKTNV-1">
          <mxGeometry x="170" y="1250" width="130" height="60" as="geometry" />
        </mxCell>
        <mxCell id="SqPZgyFbhEMVWTQlym7i-20" value="tracking中被调用的主函数，主要作用见1" style="text;html=1;align=center;verticalAlign=middle;resizable=0;points=[];autosize=1;strokeColor=none;fillColor=none;fontColor=#000000;" vertex="1" parent="WIyWlLk6GJQsqaUBKTNV-1">
          <mxGeometry x="335" y="1270" width="230" height="20" as="geometry" />
        </mxCell>
        <mxCell id="SqPZgyFbhEMVWTQlym7i-24" value="" style="edgeStyle=orthogonalEdgeStyle;rounded=0;orthogonalLoop=1;jettySize=auto;html=1;fontColor=#000000;" edge="1" parent="WIyWlLk6GJQsqaUBKTNV-1" source="SqPZgyFbhEMVWTQlym7i-21" target="SqPZgyFbhEMVWTQlym7i-23">
          <mxGeometry relative="1" as="geometry" />
        </mxCell>
        <mxCell id="SqPZgyFbhEMVWTQlym7i-21" value="对输入的左右图像进行处理，处理成为灰度图像" style="whiteSpace=wrap;html=1;rounded=1;fontColor=#000000;labelBackgroundColor=#FFFFFF;" vertex="1" parent="WIyWlLk6GJQsqaUBKTNV-1">
          <mxGeometry x="175" y="1390" width="120" height="60" as="geometry" />
        </mxCell>
        <mxCell id="SqPZgyFbhEMVWTQlym7i-27" value="" style="edgeStyle=orthogonalEdgeStyle;rounded=0;orthogonalLoop=1;jettySize=auto;html=1;fontColor=#000000;" edge="1" parent="WIyWlLk6GJQsqaUBKTNV-1" source="SqPZgyFbhEMVWTQlym7i-23" target="SqPZgyFbhEMVWTQlym7i-26">
          <mxGeometry relative="1" as="geometry" />
        </mxCell>
        <mxCell id="SqPZgyFbhEMVWTQlym7i-23" value="利用图像，imu,标定的信息初始化一个帧类" style="whiteSpace=wrap;html=1;rounded=1;fontColor=#000000;labelBackgroundColor=#FFFFFF;" vertex="1" parent="WIyWlLk6GJQsqaUBKTNV-1">
          <mxGeometry x="175" y="1530" width="120" height="60" as="geometry" />
        </mxCell>
        <mxCell id="SqPZgyFbhEMVWTQlym7i-25" value="&lt;div style=&quot;text-align: justify ; font-family: &amp;#34;droid sans mono&amp;#34; , &amp;#34;monospace&amp;#34; , monospace , &amp;#34;droid sans fallback&amp;#34; ; font-size: 14px ; line-height: 19px&quot;&gt;&lt;span style=&quot;background-color: rgb(255 , 255 , 255)&quot;&gt;mCurrentFrame = Frame(mImGray,imGrayRight,timestamp,&lt;/span&gt;&lt;/div&gt;&lt;div style=&quot;text-align: justify ; font-family: &amp;#34;droid sans mono&amp;#34; , &amp;#34;monospace&amp;#34; , monospace , &amp;#34;droid sans fallback&amp;#34; ; font-size: 14px ; line-height: 19px&quot;&gt;&lt;span style=&quot;background-color: rgb(255 , 255 , 255)&quot;&gt;mpORBextractorLeft,mpORBextractorRight,mpORBVocabulary,&lt;/span&gt;&lt;/div&gt;&lt;div style=&quot;text-align: justify ; font-family: &amp;#34;droid sans mono&amp;#34; , &amp;#34;monospace&amp;#34; , monospace , &amp;#34;droid sans fallback&amp;#34; ; font-size: 14px ; line-height: 19px&quot;&gt;&lt;span style=&quot;background-color: rgb(255 , 255 , 255)&quot;&gt;mK,mDistCoef,mbf,mThDepth,mpCamera,mpCamera2,&lt;/span&gt;&lt;/div&gt;&lt;div style=&quot;text-align: justify ; font-family: &amp;#34;droid sans mono&amp;#34; , &amp;#34;monospace&amp;#34; , monospace , &amp;#34;droid sans fallback&amp;#34; ; font-size: 14px ; line-height: 19px&quot;&gt;&lt;span style=&quot;background-color: rgb(255 , 255 , 255)&quot;&gt;mTlr,&amp;amp;mLastFrame,*mpImuCalib);&lt;/span&gt;&lt;/div&gt;" style="text;html=1;align=center;verticalAlign=middle;resizable=0;points=[];autosize=1;strokeColor=none;fillColor=none;fontColor=#000000;" vertex="1" parent="WIyWlLk6GJQsqaUBKTNV-1">
          <mxGeometry x="315" y="1510" width="480" height="80" as="geometry" />
        </mxCell>
        <mxCell id="SqPZgyFbhEMVWTQlym7i-26" value="开始跟踪过程" style="whiteSpace=wrap;html=1;rounded=1;fontColor=#000000;labelBackgroundColor=#FFFFFF;" vertex="1" parent="WIyWlLk6GJQsqaUBKTNV-1">
          <mxGeometry x="175" y="1670" width="120" height="60" as="geometry" />
        </mxCell>
        <mxCell id="SqPZgyFbhEMVWTQlym7i-28" value="&lt;div style=&quot;font-family: &amp;#34;droid sans mono&amp;#34; , &amp;#34;monospace&amp;#34; , monospace , &amp;#34;droid sans fallback&amp;#34; ; font-size: 14px ; line-height: 19px&quot;&gt;&lt;span style=&quot;background-color: rgb(255 , 255 , 255)&quot;&gt;Track()&lt;/span&gt;&lt;/div&gt;" style="text;html=1;align=center;verticalAlign=middle;resizable=0;points=[];autosize=1;strokeColor=none;fillColor=none;fontColor=#000000;" vertex="1" parent="WIyWlLk6GJQsqaUBKTNV-1">
          <mxGeometry x="315" y="1690" width="70" height="20" as="geometry" />
        </mxCell>
        <mxCell id="SqPZgyFbhEMVWTQlym7i-29" value="跟踪的主函数track()" style="whiteSpace=wrap;html=1;labelBackgroundColor=#FFFFFF;fontColor=#000000;" vertex="1" parent="WIyWlLk6GJQsqaUBKTNV-1">
          <mxGeometry x="20" y="1770" width="120" height="60" as="geometry" />
        </mxCell>
        <mxCell id="SqPZgyFbhEMVWTQlym7i-36" value="" style="edgeStyle=orthogonalEdgeStyle;rounded=0;orthogonalLoop=1;jettySize=auto;html=1;fontColor=#000000;" edge="1" parent="WIyWlLk6GJQsqaUBKTNV-1" source="SqPZgyFbhEMVWTQlym7i-30" target="SqPZgyFbhEMVWTQlym7i-35">
          <mxGeometry relative="1" as="geometry" />
        </mxCell>
        <mxCell id="SqPZgyFbhEMVWTQlym7i-30" value="tracking()" style="rounded=1;whiteSpace=wrap;html=1;labelBackgroundColor=#FFFFFF;fontColor=#000000;" vertex="1" parent="WIyWlLk6GJQsqaUBKTNV-1">
          <mxGeometry x="280" y="1840" width="120" height="60" as="geometry" />
        </mxCell>
        <mxCell id="SqPZgyFbhEMVWTQlym7i-33" value="&lt;span style=&quot;background-color: rgb(255 , 255 , 255)&quot;&gt;tracking 线程中的主要的实现跟踪的线程&lt;/span&gt;" style="text;html=1;align=center;verticalAlign=middle;resizable=0;points=[];autosize=1;strokeColor=none;fillColor=none;fontColor=#000000;" vertex="1" parent="WIyWlLk6GJQsqaUBKTNV-1">
          <mxGeometry x="420" y="1860" width="230" height="20" as="geometry" />
        </mxCell>
        <mxCell id="SqPZgyFbhEMVWTQlym7i-34" value="&lt;span style=&quot;background-color: rgb(255 , 255 , 255)&quot;&gt;控制该线程的单步stop/start&lt;/span&gt;" style="text;html=1;align=center;verticalAlign=middle;resizable=0;points=[];autosize=1;strokeColor=none;fillColor=none;fontColor=#000000;" vertex="1" parent="WIyWlLk6GJQsqaUBKTNV-1">
          <mxGeometry x="405" y="2005" width="160" height="20" as="geometry" />
        </mxCell>
        <mxCell id="SqPZgyFbhEMVWTQlym7i-43" value="" style="edgeStyle=orthogonalEdgeStyle;rounded=0;orthogonalLoop=1;jettySize=auto;html=1;fontColor=#000000;" edge="1" parent="WIyWlLk6GJQsqaUBKTNV-1" source="SqPZgyFbhEMVWTQlym7i-35" target="SqPZgyFbhEMVWTQlym7i-42">
          <mxGeometry relative="1" as="geometry" />
        </mxCell>
        <mxCell id="SqPZgyFbhEMVWTQlym7i-35" value="&lt;span&gt;b_stepBystep&lt;/span&gt;&lt;br&gt;&lt;span&gt;mbstep&lt;/span&gt;" style="whiteSpace=wrap;html=1;rounded=1;fontColor=#000000;labelBackgroundColor=#FFFFFF;" vertex="1" parent="WIyWlLk6GJQsqaUBKTNV-1">
          <mxGeometry x="280" y="1980" width="120" height="60" as="geometry" />
        </mxCell>
        <mxCell id="SqPZgyFbhEMVWTQlym7i-41" value="&lt;div style=&quot;text-align: justify ; font-family: &amp;#34;droid sans mono&amp;#34; , &amp;#34;monospace&amp;#34; , monospace , &amp;#34;droid sans fallback&amp;#34; ; font-size: 14px ; line-height: 19px&quot;&gt;&lt;span style=&quot;background-color: rgb(255 , 255 , 255)&quot;&gt;mpLocalMapper-&amp;gt;mbBadImu&lt;/span&gt;&lt;/div&gt;&lt;div style=&quot;text-align: justify ; font-family: &amp;#34;droid sans mono&amp;#34; , &amp;#34;monospace&amp;#34; , monospace , &amp;#34;droid sans fallback&amp;#34; ; font-size: 14px ; line-height: 19px&quot;&gt;&lt;span style=&quot;background-color: rgb(255 , 255 , 255)&quot;&gt;判断在LocalMapper线程中IMU是否初始化成功&lt;/span&gt;&lt;/div&gt;&lt;div style=&quot;text-align: justify ; font-family: &amp;#34;droid sans mono&amp;#34; , &amp;#34;monospace&amp;#34; , monospace , &amp;#34;droid sans fallback&amp;#34; ; font-size: 14px ; line-height: 19px&quot;&gt;&lt;span style=&quot;background-color: rgb(255 , 255 , 255)&quot;&gt;主要判断的依据是需要有一定的位移移动&lt;/span&gt;&lt;/div&gt;" style="text;html=1;align=center;verticalAlign=middle;resizable=0;points=[];autosize=1;strokeColor=none;fillColor=none;fontColor=#000000;" vertex="1" parent="WIyWlLk6GJQsqaUBKTNV-1">
          <mxGeometry x="430" y="2120" width="320" height="60" as="geometry" />
        </mxCell>
        <mxCell id="SqPZgyFbhEMVWTQlym7i-45" value="" style="edgeStyle=orthogonalEdgeStyle;rounded=0;orthogonalLoop=1;jettySize=auto;html=1;fontColor=#000000;" edge="1" parent="WIyWlLk6GJQsqaUBKTNV-1" source="SqPZgyFbhEMVWTQlym7i-42" target="SqPZgyFbhEMVWTQlym7i-44">
          <mxGeometry relative="1" as="geometry" />
        </mxCell>
        <mxCell id="SqPZgyFbhEMVWTQlym7i-42" value="&lt;span style=&quot;font-family: &amp;#34;droid sans mono&amp;#34; , &amp;#34;monospace&amp;#34; , monospace , &amp;#34;droid sans fallback&amp;#34; ; font-size: 14px&quot;&gt;检查IMU的状态&lt;/span&gt;" style="whiteSpace=wrap;html=1;rounded=1;fontColor=#000000;labelBackgroundColor=#FFFFFF;" vertex="1" parent="WIyWlLk6GJQsqaUBKTNV-1">
          <mxGeometry x="280" y="2120" width="120" height="60" as="geometry" />
        </mxCell>
        <mxCell id="SqPZgyFbhEMVWTQlym7i-48" value="" style="edgeStyle=orthogonalEdgeStyle;rounded=0;orthogonalLoop=1;jettySize=auto;html=1;fontColor=#000000;" edge="1" parent="WIyWlLk6GJQsqaUBKTNV-1" source="SqPZgyFbhEMVWTQlym7i-44" target="SqPZgyFbhEMVWTQlym7i-47">
          <mxGeometry relative="1" as="geometry" />
        </mxCell>
        <mxCell id="SqPZgyFbhEMVWTQlym7i-44" value="如果不是第一帧需要时间戳检查" style="whiteSpace=wrap;html=1;rounded=1;fontColor=#000000;labelBackgroundColor=#FFFFFF;" vertex="1" parent="WIyWlLk6GJQsqaUBKTNV-1">
          <mxGeometry x="280" y="2260" width="120" height="60" as="geometry" />
        </mxCell>
        <mxCell id="SqPZgyFbhEMVWTQlym7i-46" value="&lt;div style=&quot;font-family: &amp;#34;droid sans mono&amp;#34; , &amp;#34;monospace&amp;#34; , monospace , &amp;#34;droid sans fallback&amp;#34; ; font-size: 14px ; line-height: 19px&quot;&gt;&lt;span style=&quot;background-color: rgb(255 , 255 , 255)&quot;&gt;mState!=NO_IMAGES_YET&lt;/span&gt;&lt;/div&gt;" style="text;html=1;align=center;verticalAlign=middle;resizable=0;points=[];autosize=1;strokeColor=none;fillColor=none;fontColor=#000000;" vertex="1" parent="WIyWlLk6GJQsqaUBKTNV-1">
          <mxGeometry x="440" y="2270" width="190" height="20" as="geometry" />
        </mxCell>
        <mxCell id="SqPZgyFbhEMVWTQlym7i-51" value="" style="edgeStyle=orthogonalEdgeStyle;rounded=0;orthogonalLoop=1;jettySize=auto;html=1;fontColor=#000000;" edge="1" parent="WIyWlLk6GJQsqaUBKTNV-1" source="SqPZgyFbhEMVWTQlym7i-47" target="SqPZgyFbhEMVWTQlym7i-50">
          <mxGeometry relative="1" as="geometry" />
        </mxCell>
        <mxCell id="SqPZgyFbhEMVWTQlym7i-47" value="设置IMU的新的bias" style="whiteSpace=wrap;html=1;rounded=1;fontColor=#000000;labelBackgroundColor=#FFFFFF;" vertex="1" parent="WIyWlLk6GJQsqaUBKTNV-1">
          <mxGeometry x="280" y="2400" width="120" height="60" as="geometry" />
        </mxCell>
        <mxCell id="SqPZgyFbhEMVWTQlym7i-49" value="&lt;div style=&quot;text-align: justify ; font-family: &amp;#34;droid sans mono&amp;#34; , &amp;#34;monospace&amp;#34; , monospace , &amp;#34;droid sans fallback&amp;#34; ; font-size: 14px ; line-height: 19px&quot;&gt;&lt;span style=&quot;background-color: rgb(255 , 255 , 255)&quot;&gt;mCurrentFrame.SetNewBias(&lt;/span&gt;&lt;/div&gt;&lt;div style=&quot;text-align: justify ; font-family: &amp;#34;droid sans mono&amp;#34; , &amp;#34;monospace&amp;#34; , monospace , &amp;#34;droid sans fallback&amp;#34; ; font-size: 14px ; line-height: 19px&quot;&gt;&lt;span style=&quot;background-color: rgb(255 , 255 , 255)&quot;&gt;mpLastKeyFrame-&amp;gt;GetImuBias())&lt;/span&gt;&lt;/div&gt;" style="text;html=1;align=center;verticalAlign=middle;resizable=0;points=[];autosize=1;strokeColor=none;fillColor=none;fontColor=#000000;" vertex="1" parent="WIyWlLk6GJQsqaUBKTNV-1">
          <mxGeometry x="447" y="2410" width="260" height="40" as="geometry" />
        </mxCell>
        <mxCell id="SqPZgyFbhEMVWTQlym7i-56" value="" style="edgeStyle=orthogonalEdgeStyle;rounded=0;orthogonalLoop=1;jettySize=auto;html=1;fontColor=#000000;" edge="1" parent="WIyWlLk6GJQsqaUBKTNV-1" source="SqPZgyFbhEMVWTQlym7i-50" target="SqPZgyFbhEMVWTQlym7i-55">
          <mxGeometry relative="1" as="geometry" />
        </mxCell>
        <mxCell id="SqPZgyFbhEMVWTQlym7i-50" value="把IMU的数据进行集合" style="whiteSpace=wrap;html=1;rounded=1;fontColor=#000000;labelBackgroundColor=#FFFFFF;" vertex="1" parent="WIyWlLk6GJQsqaUBKTNV-1">
          <mxGeometry x="280" y="2540" width="120" height="60" as="geometry" />
        </mxCell>
        <mxCell id="SqPZgyFbhEMVWTQlym7i-52" value="&lt;div style=&quot;font-family: &amp;#34;droid sans mono&amp;#34; , &amp;#34;monospace&amp;#34; , monospace , &amp;#34;droid sans fallback&amp;#34; ; font-size: 14px ; line-height: 19px&quot;&gt;&lt;span style=&quot;background-color: rgb(255 , 255 , 255)&quot;&gt;PreintegrateIMU()&lt;/span&gt;&lt;/div&gt;" style="text;html=1;align=center;verticalAlign=middle;resizable=0;points=[];autosize=1;strokeColor=none;fillColor=none;fontColor=#000000;" vertex="1" parent="WIyWlLk6GJQsqaUBKTNV-1">
          <mxGeometry x="430" y="2560" width="160" height="20" as="geometry" />
        </mxCell>
        <mxCell id="SqPZgyFbhEMVWTQlym7i-58" value="" style="edgeStyle=orthogonalEdgeStyle;rounded=0;orthogonalLoop=1;jettySize=auto;html=1;fontColor=#000000;" edge="1" parent="WIyWlLk6GJQsqaUBKTNV-1" source="SqPZgyFbhEMVWTQlym7i-55" target="SqPZgyFbhEMVWTQlym7i-57">
          <mxGeometry relative="1" as="geometry" />
        </mxCell>
        <mxCell id="SqPZgyFbhEMVWTQlym7i-61" value="" style="edgeStyle=orthogonalEdgeStyle;rounded=0;orthogonalLoop=1;jettySize=auto;html=1;fontColor=#000000;" edge="1" parent="WIyWlLk6GJQsqaUBKTNV-1" source="SqPZgyFbhEMVWTQlym7i-55" target="SqPZgyFbhEMVWTQlym7i-60">
          <mxGeometry relative="1" as="geometry" />
        </mxCell>
        <mxCell id="SqPZgyFbhEMVWTQlym7i-55" value="初始化了" style="rhombus;whiteSpace=wrap;html=1;rounded=1;fontColor=#000000;labelBackgroundColor=#FFFFFF;" vertex="1" parent="WIyWlLk6GJQsqaUBKTNV-1">
          <mxGeometry x="300" y="2670" width="80" height="80" as="geometry" />
        </mxCell>
        <mxCell id="SqPZgyFbhEMVWTQlym7i-63" style="edgeStyle=orthogonalEdgeStyle;rounded=0;orthogonalLoop=1;jettySize=auto;html=1;exitX=0.5;exitY=1;exitDx=0;exitDy=0;entryX=1;entryY=0.5;entryDx=0;entryDy=0;fontColor=#000000;" edge="1" parent="WIyWlLk6GJQsqaUBKTNV-1" source="SqPZgyFbhEMVWTQlym7i-57" target="SqPZgyFbhEMVWTQlym7i-60">
          <mxGeometry relative="1" as="geometry" />
        </mxCell>
        <mxCell id="SqPZgyFbhEMVWTQlym7i-66" value="" style="edgeStyle=orthogonalEdgeStyle;rounded=0;orthogonalLoop=1;jettySize=auto;html=1;fontColor=#000000;" edge="1" parent="WIyWlLk6GJQsqaUBKTNV-1" source="SqPZgyFbhEMVWTQlym7i-57" target="SqPZgyFbhEMVWTQlym7i-65">
          <mxGeometry relative="1" as="geometry" />
        </mxCell>
        <mxCell id="SqPZgyFbhEMVWTQlym7i-57" value="&lt;div style=&quot;text-align: justify&quot;&gt;双目初始化&lt;/div&gt;&lt;div style=&quot;text-align: justify ; font-family: &amp;#34;droid sans mono&amp;#34; , &amp;#34;monospace&amp;#34; , monospace , &amp;#34;droid sans fallback&amp;#34; ; font-size: 14px ; line-height: 19px&quot;&gt;&lt;span style=&quot;background-color: rgb(255 , 255 , 255)&quot;&gt;StereoInitialization&lt;/span&gt;&lt;/div&gt;" style="whiteSpace=wrap;html=1;rounded=1;fontColor=#000000;labelBackgroundColor=#FFFFFF;" vertex="1" parent="WIyWlLk6GJQsqaUBKTNV-1">
          <mxGeometry x="440" y="2680" width="190" height="60" as="geometry" />
        </mxCell>
        <mxCell id="SqPZgyFbhEMVWTQlym7i-59" value="NO" style="text;html=1;align=center;verticalAlign=middle;resizable=0;points=[];autosize=1;strokeColor=none;fillColor=none;fontColor=#000000;" vertex="1" parent="WIyWlLk6GJQsqaUBKTNV-1">
          <mxGeometry x="395" y="2690" width="30" height="20" as="geometry" />
        </mxCell>
        <mxCell id="SqPZgyFbhEMVWTQlym7i-69" value="" style="edgeStyle=orthogonalEdgeStyle;rounded=0;orthogonalLoop=1;jettySize=auto;html=1;fontColor=#000000;" edge="1" parent="WIyWlLk6GJQsqaUBKTNV-1" source="SqPZgyFbhEMVWTQlym7i-60" target="SqPZgyFbhEMVWTQlym7i-68">
          <mxGeometry relative="1" as="geometry" />
        </mxCell>
        <mxCell id="SqPZgyFbhEMVWTQlym7i-75" value="" style="edgeStyle=orthogonalEdgeStyle;rounded=0;orthogonalLoop=1;jettySize=auto;html=1;fontColor=#000000;" edge="1" parent="WIyWlLk6GJQsqaUBKTNV-1" source="SqPZgyFbhEMVWTQlym7i-60" target="SqPZgyFbhEMVWTQlym7i-74">
          <mxGeometry relative="1" as="geometry" />
        </mxCell>
        <mxCell id="SqPZgyFbhEMVWTQlym7i-60" value="是否是只定位模式" style="whiteSpace=wrap;html=1;rounded=1;fontColor=#000000;labelBackgroundColor=#FFFFFF;" vertex="1" parent="WIyWlLk6GJQsqaUBKTNV-1">
          <mxGeometry x="280" y="2840" width="120" height="60" as="geometry" />
        </mxCell>
        <mxCell id="SqPZgyFbhEMVWTQlym7i-62" value="YES" style="text;html=1;align=center;verticalAlign=middle;resizable=0;points=[];autosize=1;strokeColor=none;fillColor=none;fontColor=#000000;" vertex="1" parent="WIyWlLk6GJQsqaUBKTNV-1">
          <mxGeometry x="300" y="2780" width="40" height="20" as="geometry" />
        </mxCell>
        <mxCell id="SqPZgyFbhEMVWTQlym7i-64" value="success" style="text;html=1;align=center;verticalAlign=middle;resizable=0;points=[];autosize=1;strokeColor=none;fillColor=none;fontColor=#000000;" vertex="1" parent="WIyWlLk6GJQsqaUBKTNV-1">
          <mxGeometry x="535" y="2790" width="60" height="20" as="geometry" />
        </mxCell>
        <mxCell id="SqPZgyFbhEMVWTQlym7i-65" value="return" style="whiteSpace=wrap;html=1;rounded=1;fontColor=#000000;labelBackgroundColor=#FFFFFF;" vertex="1" parent="WIyWlLk6GJQsqaUBKTNV-1">
          <mxGeometry x="690" y="2680" width="120" height="60" as="geometry" />
        </mxCell>
        <mxCell id="SqPZgyFbhEMVWTQlym7i-67" value="failed" style="text;html=1;align=center;verticalAlign=middle;resizable=0;points=[];autosize=1;strokeColor=none;fillColor=none;fontColor=#000000;" vertex="1" parent="WIyWlLk6GJQsqaUBKTNV-1">
          <mxGeometry x="640" y="2670" width="40" height="20" as="geometry" />
        </mxCell>
        <mxCell id="SqPZgyFbhEMVWTQlym7i-68" value="走只定位模式，暂时不考虑" style="whiteSpace=wrap;html=1;rounded=1;fontColor=#000000;labelBackgroundColor=#FFFFFF;" vertex="1" parent="WIyWlLk6GJQsqaUBKTNV-1">
          <mxGeometry x="80" y="2840" width="120" height="60" as="geometry" />
        </mxCell>
        <mxCell id="SqPZgyFbhEMVWTQlym7i-70" value="YES" style="text;html=1;align=center;verticalAlign=middle;resizable=0;points=[];autosize=1;strokeColor=none;fillColor=none;fontColor=#000000;" vertex="1" parent="WIyWlLk6GJQsqaUBKTNV-1">
          <mxGeometry x="220" y="2850" width="40" height="20" as="geometry" />
        </mxCell>
        <mxCell id="SqPZgyFbhEMVWTQlym7i-73" value="NO" style="text;html=1;align=center;verticalAlign=middle;resizable=0;points=[];autosize=1;strokeColor=none;fillColor=none;fontColor=#000000;" vertex="1" parent="WIyWlLk6GJQsqaUBKTNV-1">
          <mxGeometry x="345" y="2920" width="30" height="20" as="geometry" />
        </mxCell>
        <mxCell id="SqPZgyFbhEMVWTQlym7i-77" value="" style="edgeStyle=orthogonalEdgeStyle;rounded=0;orthogonalLoop=1;jettySize=auto;html=1;fontColor=#000000;" edge="1" parent="WIyWlLk6GJQsqaUBKTNV-1" source="SqPZgyFbhEMVWTQlym7i-74" target="SqPZgyFbhEMVWTQlym7i-76">
          <mxGeometry relative="1" as="geometry" />
        </mxCell>
        <mxCell id="SqPZgyFbhEMVWTQlym7i-80" value="" style="edgeStyle=orthogonalEdgeStyle;rounded=0;orthogonalLoop=1;jettySize=auto;html=1;fontColor=#000000;" edge="1" parent="WIyWlLk6GJQsqaUBKTNV-1" source="SqPZgyFbhEMVWTQlym7i-74" target="SqPZgyFbhEMVWTQlym7i-79">
          <mxGeometry relative="1" as="geometry" />
        </mxCell>
        <mxCell id="SqPZgyFbhEMVWTQlym7i-74" value="mState" style="rhombus;whiteSpace=wrap;html=1;rounded=1;fontColor=#000000;labelBackgroundColor=#FFFFFF;" vertex="1" parent="WIyWlLk6GJQsqaUBKTNV-1">
          <mxGeometry x="300" y="2970" width="80" height="80" as="geometry" />
        </mxCell>
        <mxCell id="SqPZgyFbhEMVWTQlym7i-76" value="" style="whiteSpace=wrap;html=1;rounded=1;fontColor=#000000;labelBackgroundColor=#FFFFFF;" vertex="1" parent="WIyWlLk6GJQsqaUBKTNV-1">
          <mxGeometry x="440" y="2980" width="120" height="60" as="geometry" />
        </mxCell>
        <mxCell id="SqPZgyFbhEMVWTQlym7i-78" value="ELSE" style="text;html=1;align=center;verticalAlign=middle;resizable=0;points=[];autosize=1;strokeColor=none;fillColor=none;fontColor=#000000;" vertex="1" parent="WIyWlLk6GJQsqaUBKTNV-1">
          <mxGeometry x="375" y="2990" width="50" height="20" as="geometry" />
        </mxCell>
        <mxCell id="SqPZgyFbhEMVWTQlym7i-85" value="" style="edgeStyle=orthogonalEdgeStyle;rounded=0;orthogonalLoop=1;jettySize=auto;html=1;fontColor=#000000;" edge="1" parent="WIyWlLk6GJQsqaUBKTNV-1" source="SqPZgyFbhEMVWTQlym7i-79" target="SqPZgyFbhEMVWTQlym7i-84">
          <mxGeometry relative="1" as="geometry" />
        </mxCell>
        <mxCell id="SqPZgyFbhEMVWTQlym7i-79" value="&lt;span style=&quot;background-color: rgb(255 , 255 , 255)&quot;&gt;更新上一帧上的&lt;span style=&quot;font-family: &amp;#34;droid sans mono&amp;#34; , &amp;#34;monospace&amp;#34; , monospace , &amp;#34;droid sans fallback&amp;#34; ; font-size: 14px&quot;&gt;mvpMapPoints的信息&lt;/span&gt;&lt;/span&gt;" style="whiteSpace=wrap;html=1;rounded=1;fontColor=#000000;labelBackgroundColor=#FFFFFF;" vertex="1" parent="WIyWlLk6GJQsqaUBKTNV-1">
          <mxGeometry x="280" y="3120" width="120" height="60" as="geometry" />
        </mxCell>
        <mxCell id="SqPZgyFbhEMVWTQlym7i-81" value="OK" style="text;html=1;align=center;verticalAlign=middle;resizable=0;points=[];autosize=1;strokeColor=none;fillColor=none;fontColor=#000000;" vertex="1" parent="WIyWlLk6GJQsqaUBKTNV-1">
          <mxGeometry x="310" y="3080" width="30" height="20" as="geometry" />
        </mxCell>
        <mxCell id="SqPZgyFbhEMVWTQlym7i-83" value="&lt;div style=&quot;font-family: &amp;#34;droid sans mono&amp;#34; , &amp;#34;monospace&amp;#34; , monospace , &amp;#34;droid sans fallback&amp;#34; ; font-size: 14px ; line-height: 19px&quot;&gt;&lt;span style=&quot;background-color: rgb(255 , 255 , 255)&quot;&gt;CheckReplacedInLastFrame&lt;/span&gt;&lt;/div&gt;" style="text;html=1;align=center;verticalAlign=middle;resizable=0;points=[];autosize=1;strokeColor=none;fillColor=none;fontColor=#000000;" vertex="1" parent="WIyWlLk6GJQsqaUBKTNV-1">
          <mxGeometry x="410" y="3130" width="220" height="20" as="geometry" />
        </mxCell>
        <mxCell id="SqPZgyFbhEMVWTQlym7i-88" value="" style="edgeStyle=orthogonalEdgeStyle;rounded=0;orthogonalLoop=1;jettySize=auto;html=1;fontSize=12;fontColor=#000000;" edge="1" parent="WIyWlLk6GJQsqaUBKTNV-1" source="SqPZgyFbhEMVWTQlym7i-84" target="SqPZgyFbhEMVWTQlym7i-87">
          <mxGeometry relative="1" as="geometry" />
        </mxCell>
        <mxCell id="SqPZgyFbhEMVWTQlym7i-91" value="" style="edgeStyle=orthogonalEdgeStyle;rounded=0;orthogonalLoop=1;jettySize=auto;html=1;fontSize=12;fontColor=#000000;" edge="1" parent="WIyWlLk6GJQsqaUBKTNV-1" source="SqPZgyFbhEMVWTQlym7i-84" target="SqPZgyFbhEMVWTQlym7i-90">
          <mxGeometry relative="1" as="geometry" />
        </mxCell>
        <mxCell id="SqPZgyFbhEMVWTQlym7i-84" value="条件1" style="rhombus;whiteSpace=wrap;html=1;rounded=1;fontColor=#000000;labelBackgroundColor=#FFFFFF;" vertex="1" parent="WIyWlLk6GJQsqaUBKTNV-1">
          <mxGeometry x="300" y="3250" width="80" height="80" as="geometry" />
        </mxCell>
        <mxCell id="SqPZgyFbhEMVWTQlym7i-86" value="&lt;div style=&quot;text-align: justify&quot;&gt;&lt;font style=&quot;font-size: 12px&quot;&gt;&lt;span style=&quot;background-color: rgb(255 , 255 , 255)&quot;&gt;条件1：&lt;/span&gt;&lt;span style=&quot;font-family: &amp;#34;droid sans mono&amp;#34; , &amp;#34;monospace&amp;#34; , monospace , &amp;#34;droid sans fallback&amp;#34;&quot;&gt;(&lt;/span&gt;&lt;span style=&quot;font-family: &amp;#34;droid sans mono&amp;#34; , &amp;#34;monospace&amp;#34; , monospace , &amp;#34;droid sans fallback&amp;#34;&quot;&gt;mVelocity&lt;/span&gt;&lt;span style=&quot;font-family: &amp;#34;droid sans mono&amp;#34; , &amp;#34;monospace&amp;#34; , monospace , &amp;#34;droid sans fallback&amp;#34;&quot;&gt;.&lt;/span&gt;&lt;span style=&quot;font-family: &amp;#34;droid sans mono&amp;#34; , &amp;#34;monospace&amp;#34; , monospace , &amp;#34;droid sans fallback&amp;#34;&quot;&gt;empty&lt;/span&gt;&lt;span style=&quot;font-family: &amp;#34;droid sans mono&amp;#34; , &amp;#34;monospace&amp;#34; , monospace , &amp;#34;droid sans fallback&amp;#34;&quot;&gt;() &amp;amp;&amp;amp;&lt;/span&gt;&lt;/font&gt;&lt;/div&gt;&lt;span style=&quot;background-color: rgb(255 , 255 , 255)&quot;&gt;&lt;span style=&quot;font-family: &amp;#34;droid sans mono&amp;#34; , &amp;#34;monospace&amp;#34; , monospace , &amp;#34;droid sans fallback&amp;#34;&quot;&gt;&lt;font style=&quot;font-size: 12px&quot;&gt;&lt;div style=&quot;text-align: justify&quot;&gt;!pCurrentMap-&amp;gt;isImuInitialized())&amp;nbsp;&lt;/div&gt;&lt;div style=&quot;text-align: justify&quot;&gt;|| mCurrentFrame.mnId&amp;lt;mnLastRelocFrameId+2&lt;/div&gt;&lt;div style=&quot;text-align: justify&quot;&gt;速度模型中速度不知道并且INU初始化失败&lt;/div&gt;&lt;div style=&quot;text-align: justify&quot;&gt;或则 当前帧和上次重定位帧之间小于2帧&lt;/div&gt;&lt;/font&gt;&lt;/span&gt;&lt;/span&gt;" style="text;html=1;align=center;verticalAlign=middle;resizable=0;points=[];autosize=1;strokeColor=none;fillColor=none;fontColor=#000000;" vertex="1" parent="WIyWlLk6GJQsqaUBKTNV-1">
          <mxGeometry x="7" y="3205" width="320" height="80" as="geometry" />
        </mxCell>
        <mxCell id="SqPZgyFbhEMVWTQlym7i-102" value="" style="edgeStyle=orthogonalEdgeStyle;rounded=0;orthogonalLoop=1;jettySize=auto;html=1;fontSize=12;fontColor=#000000;" edge="1" parent="WIyWlLk6GJQsqaUBKTNV-1" source="SqPZgyFbhEMVWTQlym7i-87" target="SqPZgyFbhEMVWTQlym7i-101">
          <mxGeometry relative="1" as="geometry" />
        </mxCell>
        <mxCell id="SqPZgyFbhEMVWTQlym7i-87" value="根据参考关键帧跟踪当前帧" style="whiteSpace=wrap;html=1;rounded=1;fontColor=#000000;labelBackgroundColor=#FFFFFF;" vertex="1" parent="WIyWlLk6GJQsqaUBKTNV-1">
          <mxGeometry x="445" y="3260" width="120" height="60" as="geometry" />
        </mxCell>
        <mxCell id="SqPZgyFbhEMVWTQlym7i-89" value="YES" style="text;html=1;align=center;verticalAlign=middle;resizable=0;points=[];autosize=1;strokeColor=none;fillColor=none;fontSize=12;fontColor=#000000;" vertex="1" parent="WIyWlLk6GJQsqaUBKTNV-1">
          <mxGeometry x="390" y="3260" width="40" height="20" as="geometry" />
        </mxCell>
        <mxCell id="SqPZgyFbhEMVWTQlym7i-97" style="edgeStyle=orthogonalEdgeStyle;rounded=0;orthogonalLoop=1;jettySize=auto;html=1;exitX=1;exitY=0.5;exitDx=0;exitDy=0;fontSize=12;fontColor=#000000;" edge="1" parent="WIyWlLk6GJQsqaUBKTNV-1" source="SqPZgyFbhEMVWTQlym7i-90">
          <mxGeometry relative="1" as="geometry">
            <mxPoint x="440" y="3290" as="targetPoint" />
          </mxGeometry>
        </mxCell>
        <mxCell id="SqPZgyFbhEMVWTQlym7i-90" value="根据运动模型跟踪当前帧" style="whiteSpace=wrap;html=1;rounded=1;fontColor=#000000;labelBackgroundColor=#FFFFFF;" vertex="1" parent="WIyWlLk6GJQsqaUBKTNV-1">
          <mxGeometry x="280" y="3380" width="120" height="60" as="geometry" />
        </mxCell>
        <mxCell id="SqPZgyFbhEMVWTQlym7i-92" value="NO" style="text;html=1;align=center;verticalAlign=middle;resizable=0;points=[];autosize=1;strokeColor=none;fillColor=none;fontSize=12;fontColor=#000000;" vertex="1" parent="WIyWlLk6GJQsqaUBKTNV-1">
          <mxGeometry x="305" y="3340" width="30" height="20" as="geometry" />
        </mxCell>
        <mxCell id="SqPZgyFbhEMVWTQlym7i-93" value="&lt;span style=&quot;font-family: &amp;#34;droid sans mono&amp;#34; , &amp;#34;monospace&amp;#34; , monospace , &amp;#34;droid sans fallback&amp;#34; ; font-size: 14px ; background-color: rgb(255 , 255 , 255)&quot;&gt;TrackReferenceKeyFrame()&lt;/span&gt;" style="text;html=1;align=center;verticalAlign=middle;resizable=0;points=[];autosize=1;strokeColor=none;fillColor=none;fontSize=12;fontColor=#000000;" vertex="1" parent="WIyWlLk6GJQsqaUBKTNV-1">
          <mxGeometry x="565" y="3280" width="220" height="20" as="geometry" />
        </mxCell>
        <mxCell id="SqPZgyFbhEMVWTQlym7i-94" value="&lt;div style=&quot;font-family: &amp;#34;droid sans mono&amp;#34; , &amp;#34;monospace&amp;#34; , monospace , &amp;#34;droid sans fallback&amp;#34; ; font-size: 14px ; line-height: 19px&quot;&gt;&lt;span style=&quot;background-color: rgb(255 , 255 , 255)&quot;&gt;TrackWithMotionModel()&lt;/span&gt;&lt;/div&gt;" style="text;html=1;align=center;verticalAlign=middle;resizable=0;points=[];autosize=1;strokeColor=none;fillColor=none;fontSize=12;fontColor=#000000;" vertex="1" parent="WIyWlLk6GJQsqaUBKTNV-1">
          <mxGeometry x="80" y="3390" width="200" height="20" as="geometry" />
        </mxCell>
        <mxCell id="SqPZgyFbhEMVWTQlym7i-98" value="跟踪失败" style="text;html=1;align=center;verticalAlign=middle;resizable=0;points=[];autosize=1;strokeColor=none;fillColor=none;fontSize=12;fontColor=#000000;" vertex="1" parent="WIyWlLk6GJQsqaUBKTNV-1">
          <mxGeometry x="380" y="3350" width="60" height="20" as="geometry" />
        </mxCell>
        <mxCell id="SqPZgyFbhEMVWTQlym7i-104" value="" style="edgeStyle=orthogonalEdgeStyle;rounded=0;orthogonalLoop=1;jettySize=auto;html=1;fontSize=12;fontColor=#000000;" edge="1" parent="WIyWlLk6GJQsqaUBKTNV-1" source="SqPZgyFbhEMVWTQlym7i-101" target="SqPZgyFbhEMVWTQlym7i-103">
          <mxGeometry relative="1" as="geometry" />
        </mxCell>
        <mxCell id="SqPZgyFbhEMVWTQlym7i-107" value="" style="edgeStyle=orthogonalEdgeStyle;rounded=0;orthogonalLoop=1;jettySize=auto;html=1;fontSize=12;fontColor=#000000;" edge="1" parent="WIyWlLk6GJQsqaUBKTNV-1" source="SqPZgyFbhEMVWTQlym7i-101" target="SqPZgyFbhEMVWTQlym7i-106">
          <mxGeometry relative="1" as="geometry" />
        </mxCell>
        <mxCell id="SqPZgyFbhEMVWTQlym7i-101" value="跟踪成功" style="rhombus;whiteSpace=wrap;html=1;rounded=1;fontColor=#000000;labelBackgroundColor=#FFFFFF;" vertex="1" parent="WIyWlLk6GJQsqaUBKTNV-1">
          <mxGeometry x="465" y="3390" width="80" height="80" as="geometry" />
        </mxCell>
        <mxCell id="SqPZgyFbhEMVWTQlym7i-103" value="" style="whiteSpace=wrap;html=1;rounded=1;fontColor=#000000;labelBackgroundColor=#FFFFFF;" vertex="1" parent="WIyWlLk6GJQsqaUBKTNV-1">
          <mxGeometry x="445" y="3560" width="120" height="60" as="geometry" />
        </mxCell>
        <mxCell id="SqPZgyFbhEMVWTQlym7i-105" value="YES" style="text;html=1;align=center;verticalAlign=middle;resizable=0;points=[];autosize=1;strokeColor=none;fillColor=none;fontSize=12;fontColor=#000000;" vertex="1" parent="WIyWlLk6GJQsqaUBKTNV-1">
          <mxGeometry x="450" y="3490" width="40" height="20" as="geometry" />
        </mxCell>
        <mxCell id="SqPZgyFbhEMVWTQlym7i-106" value="" style="whiteSpace=wrap;html=1;rounded=1;fontColor=#000000;labelBackgroundColor=#FFFFFF;" vertex="1" parent="WIyWlLk6GJQsqaUBKTNV-1">
          <mxGeometry x="605" y="3400" width="120" height="60" as="geometry" />
        </mxCell>
        <mxCell id="SqPZgyFbhEMVWTQlym7i-108" value="NO" style="text;html=1;align=center;verticalAlign=middle;resizable=0;points=[];autosize=1;strokeColor=none;fillColor=none;fontSize=12;fontColor=#000000;" vertex="1" parent="WIyWlLk6GJQsqaUBKTNV-1">
          <mxGeometry x="545" y="3410" width="30" height="20" as="geometry" />
        </mxCell>
      </root>
    </mxGraphModel>
  </diagram>
</mxfile>
